<svg version="1.0" xmlns="http://www.w3.org/2000/svg"
     width="116.000000pt" height="148.000000pt" viewBox="0 0 116.000000 148.000000"
     preserveAspectRatio="xMidYMid meet">

    <g transform="translate(0.000000,148.000000) scale(0.100000,-0.100000)"
       fill="#355080FF" stroke="none">
        <path d="M517 1459 c-132 -31 -225 -139 -242 -281 l-7 -58 -102 0 -102 0 -27
-407 c-20 -301 -24 -419 -17 -451 23 -98 87 -179 176 -223 49 -24 49 -24 389
-24 l340 0 53 29 c104 58 162 148 170 261 3 61 -28 620 -44 763 l-5 52 -103 0
-103 0 -5 63 c-12 141 -105 246 -246 276 -60 12 -72 13 -125 0z m183 -85 c80
-44 130 -124 130 -209 l0 -45 -251 0 -252 0 7 53 c15 109 73 185 168 219 68
24 132 18 198 -18z m-426 -376 c19 -163 131 -274 287 -286 170 -12 311 106
327 276 l7 67 73 3 c52 2 73 -1 76 -10 6 -19 46 -641 46 -714 0 -113 -73 -217
-179 -252 -23 -8 -133 -12 -335 -12 -295 0 -302 1 -351 24 -72 33 -132 110
-149 191 -3 17 5 194 19 395 14 201 25 368 25 373 0 4 33 7 74 7 l73 0 7 -62z
m556 15 c0 -96 -83 -209 -169 -233 -161 -45 -307 55 -327 223 l-7 57 252 0
251 0 0 -47z"/>
    </g>
</svg>