<svg version="1.0" xmlns="http://www.w3.org/2000/svg"
     width="111.000000pt" height="112.000000pt" viewBox="0 0 111.000000 112.000000"
     preserveAspectRatio="xMidYMid meet">

    <g transform="translate(0.000000,112.000000) scale(0.100000,-0.100000)"
       fill="#355080FF" stroke="none">
        <path d="M303 1096 c-149 -48 -271 -192 -291 -341 -24 -191 67 -365 235 -447
60 -28 80 -33 168 -36 109 -4 174 12 250 63 20 14 39 25 42 25 3 0 86 -79 184
-177 153 -151 180 -174 194 -163 8 7 15 17 15 24 0 6 -79 90 -176 187 l-175
175 35 53 c52 77 69 145 64 255 -3 77 -9 101 -37 159 -41 85 -111 156 -198
199 -60 29 -77 33 -167 35 -65 2 -116 -2 -143 -11z m280 -74 c153 -72 240
-239 207 -398 -31 -151 -128 -251 -280 -290 -161 -41 -334 44 -412 204 -30 60
-33 76 -33 152 0 74 4 93 31 150 49 104 143 182 251 210 66 16 168 4 236 -28z"/>
    </g>
</svg>